<mxfile host="app.diagrams.net" agent="Mozilla/5.0 (Windows NT 10.0; Win64; x64) AppleWebKit/537.36 (KHTML, like Gecko) Chrome/134.0.0.0 Safari/537.36" version="26.1.0">
  <diagram name="Page-1" id="mZTZIBfdVlgg0uVg7Rgz">
    <mxGraphModel dx="1050" dy="557" grid="1" gridSize="10" guides="1" tooltips="1" connect="1" arrows="1" fold="1" page="1" pageScale="1" pageWidth="850" pageHeight="1100" math="0" shadow="0">
      <root>
        <mxCell id="0" />
        <mxCell id="1" parent="0" />
        <object label="&lt;div&gt;Building:&lt;/div&gt;&lt;div&gt;+ name: string&lt;/div&gt;&lt;div&gt;+ height: float&lt;/div&gt;&lt;div&gt;+ floors: int&lt;/div&gt;&lt;div&gt;+ display_info()&lt;/div&gt;&lt;div&gt;&lt;br&gt;&lt;/div&gt;" Building="" id="Nb3ojY0Yi0LUcvzSPK6Z-1">
          <mxCell style="whiteSpace=wrap;html=1;aspect=fixed;" vertex="1" parent="1">
            <mxGeometry x="40" y="220" width="200" height="200" as="geometry" />
          </mxCell>
        </object>
        <mxCell id="Nb3ojY0Yi0LUcvzSPK6Z-6" value="&lt;div&gt;&amp;nbsp;Rooms:&lt;/div&gt;&lt;div&gt;+ room_number: int&lt;/div&gt;&lt;div&gt;+ type: string&lt;/div&gt;&lt;div&gt;+ area: float&lt;/div&gt;&lt;div&gt;+ allocate_space()&lt;/div&gt;&lt;div&gt;&lt;br&gt;&lt;/div&gt;" style="shape=hexagon;perimeter=hexagonPerimeter2;whiteSpace=wrap;html=1;fixedSize=1;" vertex="1" parent="1">
          <mxGeometry x="350" y="60" width="220" height="130" as="geometry" />
        </mxCell>
        <mxCell id="Nb3ojY0Yi0LUcvzSPK6Z-7" value="&lt;div&gt;Materials:&amp;nbsp;&lt;/div&gt;&lt;div&gt;+ material_name: string&lt;/div&gt;&lt;div&gt;+ strength: float&lt;/div&gt;&lt;div&gt;+ cost: float&lt;/div&gt;&lt;div&gt;+ evaluate_material()&lt;/div&gt;&lt;div&gt;&lt;br&gt;&lt;/div&gt;" style="shape=parallelogram;perimeter=parallelogramPerimeter;whiteSpace=wrap;html=1;fixedSize=1;" vertex="1" parent="1">
          <mxGeometry x="440" y="252.5" width="180" height="135" as="geometry" />
        </mxCell>
        <mxCell id="Nb3ojY0Yi0LUcvzSPK6Z-10" value="&lt;div&gt;Energy Efficiency Class&lt;/div&gt;&lt;div&gt;+ rating: int&lt;/div&gt;&lt;div&gt;+ energy_savings: float&lt;/div&gt;&lt;div&gt;+ optimize_energy_usage()&lt;/div&gt;&lt;div&gt;&lt;br&gt;&lt;/div&gt;" style="shape=process;whiteSpace=wrap;html=1;backgroundOutline=1;" vertex="1" parent="1">
          <mxGeometry x="330" y="460" width="300" height="130" as="geometry" />
        </mxCell>
        <mxCell id="Nb3ojY0Yi0LUcvzSPK6Z-11" value="" style="endArrow=classic;html=1;rounded=0;entryX=0;entryY=0.75;entryDx=0;entryDy=0;" edge="1" parent="1" source="Nb3ojY0Yi0LUcvzSPK6Z-1" target="Nb3ojY0Yi0LUcvzSPK6Z-6">
          <mxGeometry width="50" height="50" relative="1" as="geometry">
            <mxPoint x="240" y="290" as="sourcePoint" />
            <mxPoint x="290" y="240" as="targetPoint" />
            <Array as="points">
              <mxPoint x="240" y="340" />
            </Array>
          </mxGeometry>
        </mxCell>
        <mxCell id="Nb3ojY0Yi0LUcvzSPK6Z-12" value="" style="endArrow=classic;html=1;rounded=0;exitX=1.018;exitY=0.649;exitDx=0;exitDy=0;exitPerimeter=0;entryX=0;entryY=0.5;entryDx=0;entryDy=0;" edge="1" parent="1" source="Nb3ojY0Yi0LUcvzSPK6Z-1" target="Nb3ojY0Yi0LUcvzSPK6Z-7">
          <mxGeometry width="50" height="50" relative="1" as="geometry">
            <mxPoint x="320" y="500" as="sourcePoint" />
            <mxPoint x="450" y="330" as="targetPoint" />
            <Array as="points">
              <mxPoint x="240" y="340" />
            </Array>
          </mxGeometry>
        </mxCell>
        <mxCell id="Nb3ojY0Yi0LUcvzSPK6Z-13" value="" style="endArrow=classic;html=1;rounded=0;entryX=-0.003;entryY=0.426;entryDx=0;entryDy=0;entryPerimeter=0;exitX=1.002;exitY=0.653;exitDx=0;exitDy=0;exitPerimeter=0;" edge="1" parent="1" source="Nb3ojY0Yi0LUcvzSPK6Z-1" target="Nb3ojY0Yi0LUcvzSPK6Z-10">
          <mxGeometry width="50" height="50" relative="1" as="geometry">
            <mxPoint x="240" y="340" as="sourcePoint" />
            <mxPoint x="290" y="290" as="targetPoint" />
            <Array as="points">
              <mxPoint x="280" y="430" />
            </Array>
          </mxGeometry>
        </mxCell>
      </root>
    </mxGraphModel>
  </diagram>
</mxfile>
